<svg width="244" height="73" viewBox="0 0 244 73" fill="none" xmlns="http://www.w3.org/2000/svg">
<path d="M51.2273 27.7273L56.8523 45.4091H57.0682L62.7045 27.7273H68.1591L60.1364 51H53.7955L45.7614 27.7273H51.2273ZM71.392 51V33.5455H74.0739V51H71.392ZM72.7557 30.6364C72.233 30.6364 71.7822 30.4583 71.4034 30.1023C71.0322 29.7462 70.8466 29.3182 70.8466 28.8182C70.8466 28.3182 71.0322 27.8902 71.4034 27.5341C71.7822 27.178 72.233 27 72.7557 27C73.2784 27 73.7254 27.178 74.0966 27.5341C74.4754 27.8902 74.6648 28.3182 74.6648 28.8182C74.6648 29.3182 74.4754 29.7462 74.0966 30.1023C73.7254 30.4583 73.2784 30.6364 72.7557 30.6364ZM79.3494 51V27.7273H82.0312V36.3182H82.2585C82.4555 36.0152 82.7282 35.6288 83.0767 35.1591C83.4328 34.6818 83.9403 34.2576 84.5994 33.8864C85.2661 33.5076 86.1676 33.3182 87.304 33.3182C88.7737 33.3182 90.0691 33.6856 91.1903 34.4205C92.3116 35.1553 93.1866 36.197 93.8153 37.5455C94.4441 38.8939 94.7585 40.4848 94.7585 42.3182C94.7585 44.1667 94.4441 45.7689 93.8153 47.125C93.1866 48.4735 92.3153 49.5189 91.2017 50.2614C90.0881 50.9962 88.804 51.3636 87.3494 51.3636C86.2282 51.3636 85.3305 51.178 84.6562 50.8068C83.982 50.428 83.4631 50 83.0994 49.5227C82.7358 49.0379 82.4555 48.6364 82.2585 48.3182H81.9403V51H79.3494ZM81.9858 42.2727C81.9858 43.5909 82.179 44.7538 82.5653 45.7614C82.9517 46.7614 83.5161 47.5455 84.2585 48.1136C85.0009 48.6742 85.91 48.9545 86.9858 48.9545C88.107 48.9545 89.0426 48.6591 89.7926 48.0682C90.5502 47.4697 91.1184 46.6667 91.4972 45.6591C91.8835 44.6439 92.0767 43.5152 92.0767 42.2727C92.0767 41.0455 91.8873 39.9394 91.5085 38.9545C91.1373 37.9621 90.5729 37.178 89.8153 36.6023C89.0653 36.0189 88.1222 35.7273 86.9858 35.7273C85.8949 35.7273 84.9782 36.0038 84.2358 36.5568C83.4934 37.1023 82.9328 37.8674 82.554 38.8523C82.1752 39.8295 81.9858 40.9697 81.9858 42.2727ZM106.179 51.3636C104.497 51.3636 103.046 50.9924 101.827 50.25C100.615 49.5 99.679 48.4545 99.0199 47.1136C98.3684 45.7652 98.0426 44.197 98.0426 42.4091C98.0426 40.6212 98.3684 39.0455 99.0199 37.6818C99.679 36.3106 100.596 35.2424 101.77 34.4773C102.952 33.7045 104.33 33.3182 105.906 33.3182C106.815 33.3182 107.713 33.4697 108.599 33.7727C109.486 34.0758 110.293 34.5682 111.02 35.25C111.747 35.9242 112.327 36.8182 112.759 37.9318C113.19 39.0455 113.406 40.4167 113.406 42.0455V43.1818H99.9517V40.8636H110.679C110.679 39.8788 110.482 39 110.088 38.2273C109.702 37.4545 109.149 36.8447 108.429 36.3977C107.717 35.9508 106.876 35.7273 105.906 35.7273C104.838 35.7273 103.914 35.9924 103.134 36.5227C102.361 37.0455 101.766 37.7273 101.349 38.5682C100.933 39.4091 100.724 40.3106 100.724 41.2727V42.8182C100.724 44.1364 100.952 45.2538 101.406 46.1705C101.868 47.0795 102.509 47.7727 103.327 48.25C104.145 48.7197 105.096 48.9545 106.179 48.9545C106.884 48.9545 107.52 48.8561 108.088 48.6591C108.664 48.4545 109.16 48.1515 109.577 47.75C109.993 47.3409 110.315 46.8333 110.543 46.2273L113.134 46.9545C112.861 47.8333 112.402 48.6061 111.759 49.2727C111.115 49.9318 110.319 50.447 109.372 50.8182C108.425 51.1818 107.361 51.3636 106.179 51.3636Z" fill="#344576"/>
<path d="M137.588 35.875H132.611C132.52 35.2311 132.334 34.6591 132.054 34.1591C131.774 33.6515 131.414 33.2197 130.974 32.8636C130.535 32.5076 130.027 32.2348 129.452 32.0455C128.884 31.8561 128.266 31.7614 127.599 31.7614C126.395 31.7614 125.346 32.0606 124.452 32.6591C123.558 33.25 122.865 34.1136 122.372 35.25C121.88 36.3788 121.634 37.75 121.634 39.3636C121.634 41.0227 121.88 42.4167 122.372 43.5455C122.872 44.6742 123.569 45.5265 124.463 46.1023C125.357 46.678 126.391 46.9659 127.565 46.9659C128.224 46.9659 128.834 46.8788 129.395 46.7045C129.963 46.5303 130.467 46.2765 130.906 45.9432C131.346 45.6023 131.709 45.1894 131.997 44.7045C132.293 44.2197 132.497 43.6667 132.611 43.0455L137.588 43.0682C137.459 44.1364 137.137 45.1667 136.622 46.1591C136.115 47.1439 135.429 48.0265 134.565 48.8068C133.709 49.5795 132.687 50.1932 131.497 50.6477C130.315 51.0947 128.978 51.3182 127.486 51.3182C125.41 51.3182 123.554 50.8485 121.918 49.9091C120.289 48.9697 119.001 47.6098 118.054 45.8295C117.115 44.0492 116.645 41.8939 116.645 39.3636C116.645 36.8258 117.122 34.6667 118.077 32.8864C119.031 31.1061 120.327 29.75 121.963 28.8182C123.599 27.8788 125.44 27.4091 127.486 27.4091C128.834 27.4091 130.084 27.5985 131.236 27.9773C132.395 28.3561 133.421 28.9091 134.315 29.6364C135.209 30.3561 135.937 31.2386 136.497 32.2841C137.065 33.3295 137.429 34.5265 137.588 35.875ZM148.639 51.3636C147.063 51.3636 145.681 50.9886 144.491 50.2386C143.31 49.4886 142.385 48.4394 141.719 47.0909C141.06 45.7424 140.73 44.1667 140.73 42.3636C140.73 40.5455 141.06 38.9583 141.719 37.6023C142.385 36.2462 143.31 35.1932 144.491 34.4432C145.681 33.6932 147.063 33.3182 148.639 33.3182C150.215 33.3182 151.594 33.6932 152.776 34.4432C153.965 35.1932 154.889 36.2462 155.548 37.6023C156.215 38.9583 156.548 40.5455 156.548 42.3636C156.548 44.1667 156.215 45.7424 155.548 47.0909C154.889 48.4394 153.965 49.4886 152.776 50.2386C151.594 50.9886 150.215 51.3636 148.639 51.3636ZM148.639 48.9545C149.836 48.9545 150.821 48.6477 151.594 48.0341C152.366 47.4205 152.938 46.6136 153.31 45.6136C153.681 44.6136 153.866 43.5303 153.866 42.3636C153.866 41.197 153.681 40.1098 153.31 39.1023C152.938 38.0947 152.366 37.2803 151.594 36.6591C150.821 36.0379 149.836 35.7273 148.639 35.7273C147.442 35.7273 146.457 36.0379 145.685 36.6591C144.912 37.2803 144.34 38.0947 143.969 39.1023C143.598 40.1098 143.412 41.197 143.412 42.3636C143.412 43.5303 143.598 44.6136 143.969 45.6136C144.34 46.6136 144.912 47.4205 145.685 48.0341C146.457 48.6477 147.442 48.9545 148.639 48.9545ZM163.324 40.5V51H160.642V33.5455H163.233V36.2727H163.46C163.869 35.3864 164.491 34.6742 165.324 34.1364C166.157 33.5909 167.233 33.3182 168.551 33.3182C169.733 33.3182 170.767 33.5606 171.653 34.0455C172.54 34.5227 173.229 35.25 173.722 36.2273C174.214 37.197 174.46 38.4242 174.46 39.9091V51H171.778V40.0909C171.778 38.7197 171.422 37.6515 170.71 36.8864C169.998 36.1136 169.021 35.7273 167.778 35.7273C166.922 35.7273 166.157 35.9129 165.483 36.2841C164.816 36.6553 164.29 37.197 163.903 37.9091C163.517 38.6212 163.324 39.4848 163.324 40.5ZM182.043 40.5V51H179.361V33.5455H181.952V36.2727H182.179C182.588 35.3864 183.209 34.6742 184.043 34.1364C184.876 33.5909 185.952 33.3182 187.27 33.3182C188.452 33.3182 189.486 33.5606 190.372 34.0455C191.259 34.5227 191.948 35.25 192.44 36.2273C192.933 37.197 193.179 38.4242 193.179 39.9091V51H190.497V40.0909C190.497 38.7197 190.141 37.6515 189.429 36.8864C188.717 36.1136 187.74 35.7273 186.497 35.7273C185.641 35.7273 184.876 35.9129 184.202 36.2841C183.535 36.6553 183.009 37.197 182.622 37.9091C182.236 38.6212 182.043 39.4848 182.043 40.5ZM205.398 51.3636C203.716 51.3636 202.265 50.9924 201.045 50.25C199.833 49.5 198.898 48.4545 198.239 47.1136C197.587 45.7652 197.261 44.197 197.261 42.4091C197.261 40.6212 197.587 39.0455 198.239 37.6818C198.898 36.3106 199.814 35.2424 200.989 34.4773C202.17 33.7045 203.549 33.3182 205.125 33.3182C206.034 33.3182 206.932 33.4697 207.818 33.7727C208.705 34.0758 209.511 34.5682 210.239 35.25C210.966 35.9242 211.545 36.8182 211.977 37.9318C212.409 39.0455 212.625 40.4167 212.625 42.0455V43.1818H199.17V40.8636H209.898C209.898 39.8788 209.701 39 209.307 38.2273C208.92 37.4545 208.367 36.8447 207.648 36.3977C206.936 35.9508 206.095 35.7273 205.125 35.7273C204.057 35.7273 203.133 35.9924 202.352 36.5227C201.58 37.0455 200.985 37.7273 200.568 38.5682C200.152 39.4091 199.943 40.3106 199.943 41.2727V42.8182C199.943 44.1364 200.17 45.2538 200.625 46.1705C201.087 47.0795 201.727 47.7727 202.545 48.25C203.364 48.7197 204.314 48.9545 205.398 48.9545C206.102 48.9545 206.739 48.8561 207.307 48.6591C207.883 48.4545 208.379 48.1515 208.795 47.75C209.212 47.3409 209.534 46.8333 209.761 46.2273L212.352 46.9545C212.08 47.8333 211.621 48.6061 210.977 49.2727C210.333 49.9318 209.538 50.447 208.591 50.8182C207.644 51.1818 206.58 51.3636 205.398 51.3636ZM223.795 51.3636C222.159 51.3636 220.75 50.9773 219.568 50.2045C218.386 49.4318 217.477 48.3674 216.841 47.0114C216.205 45.6553 215.886 44.1061 215.886 42.3636C215.886 40.5909 216.212 39.0265 216.864 37.6705C217.523 36.3068 218.439 35.2424 219.614 34.4773C220.795 33.7045 222.174 33.3182 223.75 33.3182C224.977 33.3182 226.083 33.5455 227.068 34C228.053 34.4545 228.86 35.0909 229.489 35.9091C230.117 36.7273 230.508 37.6818 230.659 38.7727H227.977C227.773 37.9773 227.318 37.2727 226.614 36.6591C225.917 36.0379 224.977 35.7273 223.795 35.7273C222.75 35.7273 221.833 36 221.045 36.5455C220.265 37.0833 219.655 37.8447 219.216 38.8295C218.784 39.8068 218.568 40.9545 218.568 42.2727C218.568 43.6212 218.78 44.7955 219.205 45.7955C219.636 46.7955 220.242 47.572 221.023 48.125C221.811 48.678 222.735 48.9545 223.795 48.9545C224.492 48.9545 225.125 48.8333 225.693 48.5909C226.261 48.3485 226.742 48 227.136 47.5455C227.53 47.0909 227.811 46.5455 227.977 45.9091H230.659C230.508 46.9394 230.133 47.8674 229.534 48.6932C228.943 49.5114 228.159 50.1629 227.182 50.6477C226.212 51.125 225.083 51.3636 223.795 51.3636ZM242.17 33.5455V35.8182H233.125V33.5455H242.17ZM235.761 29.3636H238.443V46C238.443 46.7576 238.553 47.3258 238.773 47.7045C239 48.0758 239.288 48.3258 239.636 48.4545C239.992 48.5758 240.367 48.6364 240.761 48.6364C241.057 48.6364 241.299 48.6212 241.489 48.5909C241.678 48.553 241.83 48.5227 241.943 48.5L242.489 50.9091C242.307 50.9773 242.053 51.0455 241.727 51.1136C241.402 51.1894 240.989 51.2273 240.489 51.2273C239.731 51.2273 238.989 51.0644 238.261 50.7386C237.542 50.4129 236.943 49.9167 236.466 49.25C235.996 48.5833 235.761 47.7424 235.761 46.7273V29.3636Z" fill="#F46BF9"/>
<rect x="11.5395" y="8.38159" width="19.7105" height="62.8158" rx="8.25" stroke="#F46BF9" stroke-width="3.5"/>
<rect x="1.75" y="1.75" width="19.7105" height="62.8158" rx="8.25" stroke="#344576" stroke-width="3.5"/>
</svg>
