<svg width="235" height="68" viewBox="0 0 235 68" fill="none" xmlns="http://www.w3.org/2000/svg">
<path d="M42.2273 24.7273L47.8523 42.4091H48.0682L53.7045 24.7273H59.1591L51.1364 48H44.7955L36.7614 24.7273H42.2273ZM62.392 48V30.5455H65.0739V48H62.392ZM63.7557 27.6364C63.233 27.6364 62.7822 27.4583 62.4034 27.1023C62.0322 26.7462 61.8466 26.3182 61.8466 25.8182C61.8466 25.3182 62.0322 24.8902 62.4034 24.5341C62.7822 24.178 63.233 24 63.7557 24C64.2784 24 64.7254 24.178 65.0966 24.5341C65.4754 24.8902 65.6648 25.3182 65.6648 25.8182C65.6648 26.3182 65.4754 26.7462 65.0966 27.1023C64.7254 27.4583 64.2784 27.6364 63.7557 27.6364ZM70.3494 48V24.7273H73.0312V33.3182H73.2585C73.4555 33.0152 73.7282 32.6288 74.0767 32.1591C74.4328 31.6818 74.9403 31.2576 75.5994 30.8864C76.2661 30.5076 77.1676 30.3182 78.304 30.3182C79.7737 30.3182 81.0691 30.6856 82.1903 31.4205C83.3116 32.1553 84.1866 33.197 84.8153 34.5455C85.4441 35.8939 85.7585 37.4848 85.7585 39.3182C85.7585 41.1667 85.4441 42.7689 84.8153 44.125C84.1866 45.4735 83.3153 46.5189 82.2017 47.2614C81.0881 47.9962 79.804 48.3636 78.3494 48.3636C77.2282 48.3636 76.3305 48.178 75.6562 47.8068C74.982 47.428 74.4631 47 74.0994 46.5227C73.7358 46.0379 73.4555 45.6364 73.2585 45.3182H72.9403V48H70.3494ZM72.9858 39.2727C72.9858 40.5909 73.179 41.7538 73.5653 42.7614C73.9517 43.7614 74.5161 44.5455 75.2585 45.1136C76.0009 45.6742 76.91 45.9545 77.9858 45.9545C79.107 45.9545 80.0426 45.6591 80.7926 45.0682C81.5502 44.4697 82.1184 43.6667 82.4972 42.6591C82.8835 41.6439 83.0767 40.5152 83.0767 39.2727C83.0767 38.0455 82.8873 36.9394 82.5085 35.9545C82.1373 34.9621 81.5729 34.178 80.8153 33.6023C80.0653 33.0189 79.1222 32.7273 77.9858 32.7273C76.8949 32.7273 75.9782 33.0038 75.2358 33.5568C74.4934 34.1023 73.9328 34.8674 73.554 35.8523C73.1752 36.8295 72.9858 37.9697 72.9858 39.2727ZM97.179 48.3636C95.4972 48.3636 94.0464 47.9924 92.8267 47.25C91.6146 46.5 90.679 45.4545 90.0199 44.1136C89.3684 42.7652 89.0426 41.197 89.0426 39.4091C89.0426 37.6212 89.3684 36.0455 90.0199 34.6818C90.679 33.3106 91.5956 32.2424 92.7699 31.4773C93.9517 30.7045 95.3305 30.3182 96.9062 30.3182C97.8153 30.3182 98.7131 30.4697 99.5994 30.7727C100.486 31.0758 101.293 31.5682 102.02 32.25C102.747 32.9242 103.327 33.8182 103.759 34.9318C104.19 36.0455 104.406 37.4167 104.406 39.0455V40.1818H90.9517V37.8636H101.679C101.679 36.8788 101.482 36 101.088 35.2273C100.702 34.4545 100.149 33.8447 99.429 33.3977C98.7169 32.9508 97.8759 32.7273 96.9062 32.7273C95.8381 32.7273 94.9138 32.9924 94.1335 33.5227C93.3608 34.0455 92.7661 34.7273 92.3494 35.5682C91.9328 36.4091 91.7244 37.3106 91.7244 38.2727V39.8182C91.7244 41.1364 91.9517 42.2538 92.4062 43.1705C92.8684 44.0795 93.5085 44.7727 94.3267 45.25C95.1449 45.7197 96.0956 45.9545 97.179 45.9545C97.8835 45.9545 98.5199 45.8561 99.0881 45.6591C99.6638 45.4545 100.16 45.1515 100.577 44.75C100.993 44.3409 101.315 43.8333 101.543 43.2273L104.134 43.9545C103.861 44.8333 103.402 45.6061 102.759 46.2727C102.115 46.9318 101.319 47.447 100.372 47.8182C99.4252 48.1818 98.3608 48.3636 97.179 48.3636Z" fill="#F6F6F6"/>
<path d="M128.588 32.875H123.611C123.52 32.2311 123.334 31.6591 123.054 31.1591C122.774 30.6515 122.414 30.2197 121.974 29.8636C121.535 29.5076 121.027 29.2348 120.452 29.0455C119.884 28.8561 119.266 28.7614 118.599 28.7614C117.395 28.7614 116.346 29.0606 115.452 29.6591C114.558 30.25 113.865 31.1136 113.372 32.25C112.88 33.3788 112.634 34.75 112.634 36.3636C112.634 38.0227 112.88 39.4167 113.372 40.5455C113.872 41.6742 114.569 42.5265 115.463 43.1023C116.357 43.678 117.391 43.9659 118.565 43.9659C119.224 43.9659 119.834 43.8788 120.395 43.7045C120.963 43.5303 121.467 43.2765 121.906 42.9432C122.346 42.6023 122.709 42.1894 122.997 41.7045C123.293 41.2197 123.497 40.6667 123.611 40.0455L128.588 40.0682C128.459 41.1364 128.137 42.1667 127.622 43.1591C127.115 44.1439 126.429 45.0265 125.565 45.8068C124.709 46.5795 123.687 47.1932 122.497 47.6477C121.315 48.0947 119.978 48.3182 118.486 48.3182C116.41 48.3182 114.554 47.8485 112.918 46.9091C111.289 45.9697 110.001 44.6098 109.054 42.8295C108.115 41.0492 107.645 38.8939 107.645 36.3636C107.645 33.8258 108.122 31.6667 109.077 29.8864C110.031 28.1061 111.327 26.75 112.963 25.8182C114.599 24.8788 116.44 24.4091 118.486 24.4091C119.834 24.4091 121.084 24.5985 122.236 24.9773C123.395 25.3561 124.421 25.9091 125.315 26.6364C126.209 27.3561 126.937 28.2386 127.497 29.2841C128.065 30.3295 128.429 31.5265 128.588 32.875ZM139.639 48.3636C138.063 48.3636 136.681 47.9886 135.491 47.2386C134.31 46.4886 133.385 45.4394 132.719 44.0909C132.06 42.7424 131.73 41.1667 131.73 39.3636C131.73 37.5455 132.06 35.9583 132.719 34.6023C133.385 33.2462 134.31 32.1932 135.491 31.4432C136.681 30.6932 138.063 30.3182 139.639 30.3182C141.215 30.3182 142.594 30.6932 143.776 31.4432C144.965 32.1932 145.889 33.2462 146.548 34.6023C147.215 35.9583 147.548 37.5455 147.548 39.3636C147.548 41.1667 147.215 42.7424 146.548 44.0909C145.889 45.4394 144.965 46.4886 143.776 47.2386C142.594 47.9886 141.215 48.3636 139.639 48.3636ZM139.639 45.9545C140.836 45.9545 141.821 45.6477 142.594 45.0341C143.366 44.4205 143.938 43.6136 144.31 42.6136C144.681 41.6136 144.866 40.5303 144.866 39.3636C144.866 38.197 144.681 37.1098 144.31 36.1023C143.938 35.0947 143.366 34.2803 142.594 33.6591C141.821 33.0379 140.836 32.7273 139.639 32.7273C138.442 32.7273 137.457 33.0379 136.685 33.6591C135.912 34.2803 135.34 35.0947 134.969 36.1023C134.598 37.1098 134.412 38.197 134.412 39.3636C134.412 40.5303 134.598 41.6136 134.969 42.6136C135.34 43.6136 135.912 44.4205 136.685 45.0341C137.457 45.6477 138.442 45.9545 139.639 45.9545ZM154.324 37.5V48H151.642V30.5455H154.233V33.2727H154.46C154.869 32.3864 155.491 31.6742 156.324 31.1364C157.157 30.5909 158.233 30.3182 159.551 30.3182C160.733 30.3182 161.767 30.5606 162.653 31.0455C163.54 31.5227 164.229 32.25 164.722 33.2273C165.214 34.197 165.46 35.4242 165.46 36.9091V48H162.778V37.0909C162.778 35.7197 162.422 34.6515 161.71 33.8864C160.998 33.1136 160.021 32.7273 158.778 32.7273C157.922 32.7273 157.157 32.9129 156.483 33.2841C155.816 33.6553 155.29 34.197 154.903 34.9091C154.517 35.6212 154.324 36.4848 154.324 37.5ZM173.043 37.5V48H170.361V30.5455H172.952V33.2727H173.179C173.588 32.3864 174.209 31.6742 175.043 31.1364C175.876 30.5909 176.952 30.3182 178.27 30.3182C179.452 30.3182 180.486 30.5606 181.372 31.0455C182.259 31.5227 182.948 32.25 183.44 33.2273C183.933 34.197 184.179 35.4242 184.179 36.9091V48H181.497V37.0909C181.497 35.7197 181.141 34.6515 180.429 33.8864C179.717 33.1136 178.74 32.7273 177.497 32.7273C176.641 32.7273 175.876 32.9129 175.202 33.2841C174.535 33.6553 174.009 34.197 173.622 34.9091C173.236 35.6212 173.043 36.4848 173.043 37.5ZM196.398 48.3636C194.716 48.3636 193.265 47.9924 192.045 47.25C190.833 46.5 189.898 45.4545 189.239 44.1136C188.587 42.7652 188.261 41.197 188.261 39.4091C188.261 37.6212 188.587 36.0455 189.239 34.6818C189.898 33.3106 190.814 32.2424 191.989 31.4773C193.17 30.7045 194.549 30.3182 196.125 30.3182C197.034 30.3182 197.932 30.4697 198.818 30.7727C199.705 31.0758 200.511 31.5682 201.239 32.25C201.966 32.9242 202.545 33.8182 202.977 34.9318C203.409 36.0455 203.625 37.4167 203.625 39.0455V40.1818H190.17V37.8636H200.898C200.898 36.8788 200.701 36 200.307 35.2273C199.92 34.4545 199.367 33.8447 198.648 33.3977C197.936 32.9508 197.095 32.7273 196.125 32.7273C195.057 32.7273 194.133 32.9924 193.352 33.5227C192.58 34.0455 191.985 34.7273 191.568 35.5682C191.152 36.4091 190.943 37.3106 190.943 38.2727V39.8182C190.943 41.1364 191.17 42.2538 191.625 43.1705C192.087 44.0795 192.727 44.7727 193.545 45.25C194.364 45.7197 195.314 45.9545 196.398 45.9545C197.102 45.9545 197.739 45.8561 198.307 45.6591C198.883 45.4545 199.379 45.1515 199.795 44.75C200.212 44.3409 200.534 43.8333 200.761 43.2273L203.352 43.9545C203.08 44.8333 202.621 45.6061 201.977 46.2727C201.333 46.9318 200.538 47.447 199.591 47.8182C198.644 48.1818 197.58 48.3636 196.398 48.3636ZM214.795 48.3636C213.159 48.3636 211.75 47.9773 210.568 47.2045C209.386 46.4318 208.477 45.3674 207.841 44.0114C207.205 42.6553 206.886 41.1061 206.886 39.3636C206.886 37.5909 207.212 36.0265 207.864 34.6705C208.523 33.3068 209.439 32.2424 210.614 31.4773C211.795 30.7045 213.174 30.3182 214.75 30.3182C215.977 30.3182 217.083 30.5455 218.068 31C219.053 31.4545 219.86 32.0909 220.489 32.9091C221.117 33.7273 221.508 34.6818 221.659 35.7727H218.977C218.773 34.9773 218.318 34.2727 217.614 33.6591C216.917 33.0379 215.977 32.7273 214.795 32.7273C213.75 32.7273 212.833 33 212.045 33.5455C211.265 34.0833 210.655 34.8447 210.216 35.8295C209.784 36.8068 209.568 37.9545 209.568 39.2727C209.568 40.6212 209.78 41.7955 210.205 42.7955C210.636 43.7955 211.242 44.572 212.023 45.125C212.811 45.678 213.735 45.9545 214.795 45.9545C215.492 45.9545 216.125 45.8333 216.693 45.5909C217.261 45.3485 217.742 45 218.136 44.5455C218.53 44.0909 218.811 43.5455 218.977 42.9091H221.659C221.508 43.9394 221.133 44.8674 220.534 45.6932C219.943 46.5114 219.159 47.1629 218.182 47.6477C217.212 48.125 216.083 48.3636 214.795 48.3636ZM233.17 30.5455V32.8182H224.125V30.5455H233.17ZM226.761 26.3636H229.443V43C229.443 43.7576 229.553 44.3258 229.773 44.7045C230 45.0758 230.288 45.3258 230.636 45.4545C230.992 45.5758 231.367 45.6364 231.761 45.6364C232.057 45.6364 232.299 45.6212 232.489 45.5909C232.678 45.553 232.83 45.5227 232.943 45.5L233.489 47.9091C233.307 47.9773 233.053 48.0455 232.727 48.1136C232.402 48.1894 231.989 48.2273 231.489 48.2273C230.731 48.2273 229.989 48.0644 229.261 47.7386C228.542 47.4129 227.943 46.9167 227.466 46.25C226.996 45.5833 226.761 44.7424 226.761 43.7273V26.3636Z" fill="#F46BF9"/>
<rect x="11.3636" y="8.18176" width="17.6364" height="57.8182" rx="8" stroke="#F46BF9" stroke-width="4"/>
<rect x="2" y="2" width="17.6364" height="57.8182" rx="8" stroke="#F6F6F6" stroke-width="4"/>
</svg>
